<svg viewBox="0 0 671.89331 134.34666" xmlns="http://www.w3.org/2000/svg"><path d="m210.2 125.4c0 1.3-.6 2.2-1.6 2.7a27.8 27.8 0 0 1 -28.7-6.6c-2.7-2.6-8-10.3-8-21.1 0-9 3-15.9 7.5-19.4 5.8-4.6 11.5-5 16.3-5 9.9 0 16 3.2 18 6.1 1.1 1.9 1.5 4 1.6 5 0 .8.1 1.2.5 1.2.5 0 .7-.4.7-1.6 0-7.6.5-9.7.5-10.8 0-.3-.1-.6-.9-.7-1.9 0-4.6-.4-6.2-.8-1.4-.3-6.8-1.3-11.7-1.3-5.8 0-13.4.6-20.3 4.8a29 29 0 0 0 -12.7 25.2c0 9.5 4.4 17.7 9 21.7a38 38 0 0 0 25.2 8.2c4.4 0 11.3-.8 16.2-3.4.9-.6 1-.7 1-4.2v-8.4l.1-8c.2-2.6.8-4 2.8-4.3l2-.2c.3 0 .6-.2.6-.5 0-.5-.4-.6-1.3-.6l-7.4.2-8.7-.2c-.8 0-1.2.1-1.2.6 0 .3.3.5.6.5.7 0 2 0 2.6.2 3 .8 3.5 1.7 3.5 7.9v13m30.4-15.4c-.2 0-.3-.1-.2-.4l5.8-17.7c.3-1 .6-1 1 0l6.2 17.7c0 .2 0 .4-.3.4zm-9.2 14.5c-1.1 3.3-2.4 5.8-5.5 6.2h-1.9c-.3 0-.5.2-.5.5 0 .4.3.5 1.2.5l7.4-.2 5.1.2c.6 0 1-.1 1-.5 0-.3-.2-.4-.7-.4h-.6c-1.1 0-2.5-.6-2.5-2 0-1 .3-2.7.9-4.3l4-11.6c0-.3.3-.5.6-.5h14c.4 0 .5.1.6.4l6.1 16c.4 1.1 0 1.7-.4 1.9-.2 0-.4.1-.4.4 0 .4.7.4 2 .5l10.2.1c.7 0 1.3-.1 1.3-.5s-.2-.4-.6-.4c-.7 0-1.7 0-2.6-.4-1.4-.4-3.3-1.4-5.7-7.3-4-10-14.2-37-15.2-39.4-.8-2-1-2.4-1.5-2.4-.4 0-.6.4-1.4 2.6zm59.4-39.5 8.3.2c6.3.1 7.8 1.6 8 3.6l.1.7c0 .9.2 1.1.5 1.1s.5-.3.5-.9l.2-7.2c0-.3 0-.7-.3-.7s-.9 0-1.9.3c-1 .1-2.5.3-4.6.3h-24.6l-5.1-.3c-1.8-.1-2.5-.8-3-.8-.2 0-.4.9-.6 1.2-.1.6-1.4 6.2-1.4 6.9 0 .3.1.5.3.5.3 0 .5 0 .7-.6l1-2c1.1-1.6 2.7-2 6.8-2.1l9.6-.2v27.8c0 6.3 0 11.5-.3 14.2-.2 2-.6 3.4-1.9 3.6-.6.2-1.4.3-2 .3-.3 0-.5.2-.5.4 0 .4.4.5 1 .5l6.5-.2 8 .2c.8 0 1-.2 1-.5 0-.2 0-.4-.4-.4l-3-.3c-2-.2-2.3-1.7-2.5-3.6-.4-2.7-.4-7.9-.4-14.2zm30.2 27.8c0 6.2 0 11.4-.4 14.1-.3 2-.6 3.4-1.9 3.6-.6.2-1.4.3-2 .3-.4 0-.5.2-.5.4 0 .4.3.5 1 .5l3.9-.1 2.6-.1c1.9 0 6.3.4 16.1.4 2.6 0 3.1 0 3.6-1.7.3-1.4.8-5.8.8-6.4 0-.4 0-1-.4-1-.3 0-.4.3-.6 1-.4 2.7-1.2 4-3 4.8-1.6.7-4.5.7-6.2.7-6.4 0-7.4-.9-7.6-5.4v-16.9c0-.3.2-.5.5-.5 1 0 7.6.1 9.3.3 2.6.3 3.2 1.4 3.4 2.3.3.9.3 1.5.3 2.2 0 .3.1.6.5.6s.4-.8.4-1.3c0-.4.1-2.9.3-4.2l.5-3.6c0-.4-.1-.6-.3-.6-.3 0-.5.4-1 .9-.6.7-1.5.8-3 1h-10.5c-.3 0-.4-.2-.4-.6v-18c0-.5.2-.7.4-.7.7 0 7.9 0 9 .2 3.5.4 4.2 1.1 4.6 2.2.4.8.4 1.9.4 2.4s.1.8.5.8c.3 0 .4-.4.5-.7l.3-4.3c.2-1.9.6-2.7.6-3.1 0-.3-.1-.6-.3-.6-.3 0-.6.3-1 .3-.5.2-1.5.3-2.7.4h-15l-7.4-.2c-.7 0-1 .2-1 .5s.2.4.5.4l2.2.2c2.1.5 2.7 1.5 2.8 3.8l.1 14.1v11.5m44.1 19.9c3.5 0 7-.8 9.9-2.7 4.5-3.2 5.6-8.2 5.6-10.9 0-5.2-1.9-9.3-9.6-15.4l-1.8-1.4c-6.2-5-8-7.3-8-11 0-4.8 3.5-7.6 8-7.6 6 0 7.8 2.7 8.2 3.5.4.7.8 2.5.9 3.2 0 .6 0 .9.5.9.3 0 .4-.5.4-1.5 0-4.5.3-6.6.3-7 0-.3-.1-.4-.6-.4-.6 0-1.1 0-2.3-.3-1.7-.4-3.6-.7-6.1-.7-8.3 0-13.6 4.8-13.6 11.8 0 4.4 1.6 8.5 8.5 14.2l3 2.4c5.6 4.7 7.5 7.3 7.5 11.8 0 4.2-3 8.7-9.4 8.7-4.3 0-8.7-1.8-9.6-6.7-.2-.9-.2-1.8-.2-2.4 0-.5-.1-.7-.5-.7-.3 0-.5.3-.5 1 0 1-.3 3.7-.3 7 0 1.7 0 2 1 2.4 2.6 1.4 5.6 1.8 8.7 1.8m59.3-32c.8-.6.9-1.4.5-2h-6.7c1.4-4.6 2.5-8.9 5-12.5 1.3-1.8 2.7-2.9 4.2-2.9 1.4 0 3.1 1 3.3 4.2 0 .4.3.8.7.8.9 0 2.4-1.6 2.4-3.3 0-2.1-2.2-3.5-4.4-3.5-3.2 0-6.4 1.3-9 4.4-3.2 3.8-4.6 8-6 12.8h-4.6c-.7.5-1 1.5-.4 2h4.5c-2.6 8.7-4.4 18-7.1 26.9-1.1 3.6-2.4 4.4-3.4 4.4s-2.5-.7-3.2-2c-.4-.6-.8-1-1.6-.4-.3.2-1 .7-1 2 0 .8 1 2.6 3.5 2.6 3.2 0 5.5-2 6.1-2.7 1.1-1 2.7-4 4.2-8.8 1.8-5.9 3.4-11.8 5-17.8.6-1.6 1-3.3 1.3-4.2zm18.7-1.1c1.9 0 2.2 1.8 2.2 3.5a33 33 0 0 1 -5 13c-1.7 2.4-3 2.9-4.3 2.9-1.5 0-2.3-1.6-2.2-3.5a31 31 0 0 1 5.4-13.4c1.6-2 2.8-2.5 4-2.5zm.4-1.7c-2.2 0-4.6.9-7.4 3.5a20.1 20.1 0 0 0 -5.9 12c-.3 4.7 2 7.2 5.4 7.2 1.5 0 4.3-.3 7.7-3.7 4-4.1 5.5-9.2 5.7-12.2.2-4-1.7-6.8-5.5-6.8m24.6 1.7c.3-1-1-1.7-1.7-1.7-2.5 0-7.8 4.3-9.2 6.4-.1.5.3 1 .9.8 1.3-1.3 4-3.7 5-3.7.5 0 .4.6 0 1.6l-4.9 13c-.9 2.4-.6 4.6 1.6 4.6 2.9 0 9.5-6.9 13.4-11.8l-3.6 9.9c-.3.9.5 1.9 1.4 1.9 2.8 0 8-4.3 9.4-6.8 0-.7-.5-.9-1-.8-1.4 1.7-4.2 4.2-5.2 4.2-.6 0-.5-.6-.3-1.3 2.3-6.4 5.8-15.2 6.3-16.7-.2-.6-1.5-1.1-2.6-1-1.8 3.3-4.6 9.6-9.5 14.4-2.7 2.7-4.9 4.4-5.7 4.4-.6 0-.8-.5-.4-1.8l6-15.6m31.1.5c.5-1.2 0-2.2-1.4-2.2-2.7 0-6 2.2-8 5 0 .5.2.8.7.8 1.7-1.5 3.6-2.6 4.9-2.6.4 0 .4.5.1 1.2l-6.2 16.9c-.5 1.2 1 1.4 1.6 1.4.4 0 .7-.2 1-.7 3-5.9 5.3-10 8.1-13.6 3-3.7 6.1-6.4 7.4-6.4.8 0 .9.7.9 1.3 0 1-.7 3-1.1 4-1.3 2.6-3.3 7.9-4.4 10.5-1.1 2.7-1.3 3-1.3 3.5 0 .7.8 1.4 1.3 1.4 3 0 7.2-2.6 9.2-6 0-.5 0-.9-.8-.8-1.6 1.9-4.2 3.7-5 3.7-.4 0-.4-.5-.2-1s4-9.2 5-12c.4-1.1.9-2.8.9-3.7 0-1.7-1-2.9-3-2.9-4 0-9.4 6-13.2 11.7h-.1zm37.2-.5c1.4 0 2 1.6 1.4 3.8-.8 2.9-2.3 6-6.5 10.4-3.7 3.8-6.5 4.7-7.3 4.7-.4 0-1-.4-1-1 0-.8 0-1.8 1.7-5.2 1.5-3.4 5.5-8.4 7.5-10.4 1.4-1.3 2.9-2.3 4.1-2.3zm2.9 0a3.3 3.3 0 0 0 -2.8-1.7c-2.5 0-6 1.5-9.6 4.8a22.3 22.3 0 0 0 -7.1 14c0 2.2 1.1 3.9 3.2 3.9 5.2 0 9.2-5.2 13-10.2h.2l-2 5.4a9.6 9.6 0 0 0 -.6 3c0 1 .6 1.8 1.7 1.8 2.8 0 7.7-4.4 9.1-7.4 0-.5-.3-.7-.8-.7-1.7 2.1-5 4.9-5.9 4.9-.5 0-.5-.6-.3-1.3.5-1.6 3-10.2 8.3-24.8l3.4-9.5-.2-.3c-2.3 0-5.3.6-6.4 1-.2.2-.2.5-.1.8l1.2.8c.8.5.6 1.5-.5 4.5zm25.8 1.1c1.4 0 2.3 1 2.7 2a26 26 0 0 1 -7.2 11.5c-3 2.8-4.7 3.5-5.2 3.5s-.8-.3-.8-1c0-3.8 3.3-10.8 6.7-13.9 1.6-1.5 2.5-2 3.8-2zm4-.6c-.3-.5-.8-1-1-1-.4-.2-.8-.4-1.3-.4-1.4 0-2.8.4-4.9 1.6a23.4 23.4 0 0 0 -7 6.9 23.2 23.2 0 0 0 -4.8 10.4c0 1.5.9 3 2.4 3 2.5 0 8-3.7 11.8-8.4h.1l-1.7 4.8a7 7 0 0 0 -.6 2.1c0 .5.4 1.5 1.6 1.5 3 0 6.8-3 9-6 0-.5-.4-.7-.7-.7-3.1 2.7-4.7 3.6-5.6 3.6-.4 0-.7-.4-.3-1.3a707 707 0 0 1 7.1-18.7c-.3-.7-1.7-1.2-2.6-.8zm27.1 1.2c.8-.4 1.1-1.5.7-2h-5.7l1.5-5.3c-.4-.5-1.5-.6-2-.3l-3 5.3-4.3.8c-.5.2-.7 1-.6 1.5h4.2l-5 14.8c-.6 1.6-.8 2.3-.8 3s.7 1.5 1.5 1.5c2.2 0 7.2-3.3 10.2-7.7.2-.7-.2-1-.7-1-1.8 2-5.3 4.8-6.1 4.8-.4 0-.7-.3-.4-1.3l4.8-14.1h5.9m17-16.2c-2.1 0-3 2.2-3 3.4 0 1 .6 2 2 2 1.7 0 2.8-1.7 2.8-3.4 0-1.2-.6-2-1.8-2zm-11.8 33.5c-.3.6-.1 1.1.2 1.5.3.3.6.5.8.5 3.7 0 9.3-4.9 10-6.4 0-.5-.2-.9-.7-1-1.9 2.2-4.7 4-5.6 4-.4 0-.4-.6-.2-1.1l6.4-15.3c.7-1.5.7-2 .3-2.3-.2-.2-.5-.6-.8-.6-1.8 0-6 2-8.9 5.4 0 .4.2.9.7 1 2.7-2.3 4.1-3 4.5-3 .3 0 .3.5 0 1.1zm33.6-19c1.9 0 2.2 1.8 2.2 3.5-.2 2.8-2.7 10-5 13-1.7 2.4-3 2.9-4.3 2.9-1.5 0-2.3-1.6-2.2-3.5a31 31 0 0 1 5.4-13.4c1.6-2 2.8-2.5 4-2.5zm.4-1.7c-2.2 0-4.6.9-7.4 3.5a20.1 20.1 0 0 0 -5.9 12c-.3 4.7 2 7.2 5.4 7.2 1.5 0 4.3-.3 7.7-3.7 4-4.1 5.5-9.2 5.7-12.2.2-4-1.7-6.8-5.5-6.8m23.6 2.2c.6-1.2 0-2.2-1.3-2.2-2.7 0-6 2.2-8 5 0 .5.2.8.6.8 1.8-1.5 3.7-2.6 5-2.6.3 0 .3.5 0 1.2l-6.1 16.9c-.5 1.2 1 1.4 1.5 1.4s.7-.2 1-.7c3.1-5.9 5.3-10 8.2-13.6 3-3.7 6.1-6.4 7.4-6.4.8 0 .8.7.8 1.3 0 1-.7 3-1 4-1.3 2.6-3.3 7.9-4.4 10.5-1.2 2.7-1.3 3-1.3 3.5 0 .7.8 1.4 1.3 1.4 3 0 7.2-2.6 9.2-6 0-.5-.1-.9-.9-.8-1.5 1.9-4 3.7-5 3.7-.4 0-.3-.5-.1-1 .1-.5 4-9.2 5-12 .4-1.1.8-2.8.8-3.7 0-1.7-.9-2.9-3-2.9-4 0-9.3 6-13.1 11.7h-.2l3.7-9.5m-646.3-71.1c0-.4.1-.5.4-.5l6 .1c1.8.2 3.7.5 6.3 2.2 5.9 4 7.4 10.7 7.4 15.3 0 8.6-6.6 10.9-10.8 10.9a18 18 0 0 1 -6.7-1.2c-2.3-1.1-2.3-2.2-2.6-6v-16.4zm0-24.2c0-.5.2-.7.9-.8 1.2-.3 2.8-.4 3.6-.4 7.5 0 10.3 6.8 10.3 13.1 0 3.1-1.1 5.9-2.7 7.7-1.6 1.9-2.7 2-7 2-2.8 0-4.2-.2-4.6-.3-.4-.2-.5-.3-.5-.8zm-6.2 32.2c0 7.3 0 13.4-.3 16.6-.3 2.2-.7 3.9-2.3 4.2l-2.2.3c-.5 0-.7.2-.7.5 0 .4.4.6 1.3.6l7.5-.3 10.1.5c13 0 19.5-8.5 19.5-16.7 0-8.9-7.6-14.3-13.2-16 3.6-3.8 7.1-7.5 7.1-13.8 0-3.8-2.7-11.5-15.2-11.5-3.5 0-6.5.3-8.3.3-.4 0-5.2-.3-8.7-.3-.8 0-1.2.2-1.2.6s.3.5.6.5c.7 0 2 0 2.6.2 2.5.6 3.1 1.8 3.3 4.4l.1 16.5v13.3m55.2-8.3.1-14.1c.1-2.3.6-3.4 2.4-3.7.8-.2 1.2-.2 1.7-.2.2 0 .5-.2.5-.4 0-.4-.4-.5-1-.5l-6.5.1-6.6-.1c-.7 0-1 0-1 .5 0 .2.2.4.5.4.4 0 1.3 0 2 .2 1.5.4 2.1 1.5 2.2 3.7.2 2 .2 4 .2 14.1v11.6c0 6.2 0 11.4-.4 14.2-.2 1.9-.5 3.3-1.9 3.6l-2 .2c-.3 0-.4.2-.4.4 0 .4.3.5 1 .5l6.4-.2 8 .2c.8 0 1.1-.2 1.1-.5 0-.2-.1-.4-.5-.4l-3-.2c-2-.3-2.3-1.7-2.5-3.6-.3-2.8-.3-8-.3-14.2zm28.3 0c0-10.2 0-12 .2-14.1.1-2.3.6-3.4 2.5-3.7.8-.2 1.7-.2 2.2-.2.3 0 .5-.2.5-.4 0-.4-.3-.5-1-.5l-7.1.1-7.4-.1c-.7 0-1 0-1 .5 0 .2.2.4.5.4.6 0 1.7 0 2.2.2 2.2.4 2.7 1.5 2.8 3.7.2 2 .2 4 .2 14.1v11.6c0 6.2 0 11.4-.4 14.2-.2 1.9-.6 3.3-1.9 3.6l-2 .2c-.3 0-.5.2-.5.4 0 .4.4.5 1 .5l3.8-.1h2.7c3.8 0 8.1.3 17.5.3 3.5 0 3.7-.2 4.2-1.7.5-2 1-5.9 1-6.6s-.1-1-.4-1c-.4 0-.6.4-.6.9a9.1 9.1 0 0 1 -1.7 4c-1.6 1.8-4.5 1.9-8 1.9-5 0-6.8-.5-7.8-1.5-1.2-1.2-1.5-5.4-1.5-15zm36.8 0 .1-14.1c.2-2.3.7-3.4 2.6-3.7.8-.2 1.7-.2 2.1-.2.3 0 .6-.2.6-.4 0-.4-.4-.5-1-.5l-7.2.1-7.3-.1c-.8 0-1.1 0-1.1.5 0 .2.3.4.5.4.6 0 1.7 0 2.3.2 2.1.4 2.6 1.5 2.8 3.7l.1 14.1v11.6c0 6.2 0 11.4-.3 14.2-.3 1.9-.6 3.3-2 3.6l-1.9.2c-.4 0-.5.2-.5.4 0 .4.3.5 1 .5l3.8-.1h2.6c3.8 0 8.2.3 17.6.3 3.5 0 3.7-.2 4.1-1.7.5-2 1-5.9 1-6.6s0-1-.4-1-.5.4-.6.9a9.1 9.1 0 0 1 -1.7 4c-1.6 1.8-4.4 1.9-8 1.9-5 0-6.7-.5-7.8-1.5-1.1-1.2-1.4-5.4-1.4-15zm35.5 9.3a15 15 0 0 1 3-6.8c1.7-2.1 3.5-3 4.3-3 1 0 1.8.7 1.8 1.7v1.4c-1.9 1.6-5.1 4-9 6.7zm8.4 15.2c4 0 9.4-1.7 13.3-6a23.5 23.5 0 0 0 5.9-16.7c1.7 1.4 3.5 3.5 3.8 4 .3.4.7.6 1.3.3a14 14 0 0 1 4.1-1.4c.7-.1 1.2-.2 1.5-.6.4-.4 1-1.3 1-2.6 0-1.4-.5-3-2-3-1 0-1.8.6-1.8 1.3l.2.8c.2.4.3.8.3 1.4 0 1-.6 1.7-1.1 1.7-1 0-1.2-.2-2.5-1.4-2.7-2.4-4.3-4.3-7.3-4.3-.8 0-3.3.4-5.5 2.2-2.8 2.3-3.8 4.8-3.8 6.2 0 1.5 1.3 2.2 2.4 2.2 1.6 0 1.8-1.1 1.8-1.5l-.3-1.5c-.2-.7-.5-1.4-.5-1.9 0-1.8 2.3-3.5 4-3.5 1.2 0 2.3.4 3 1-.2 4.5-1 7.2-3 11.1-3.3 6-8.9 9-13.5 9-4.2 0-9.9-2.4-9.8-9.4v-.6c5.8-4 15-11 19.6-15.5 5.2-5 7-8.4 7-11.3 0-2.1-1.3-3-2.5-3-1 0-2.2.9-2.2 2.3 0 .7.1.8.6 1.3.4.3.6.8.6 1.6 0 1.5-1.2 3.7-2 4.7-1.5 2-5.3 5.9-7.8 7.9-.4-.8-1-2.2-3.4-2.2-1.2 0-4.7.6-8.3 4.3a17 17 0 0 0 -5.3 11.9c0 5.7 3.5 11 12.2 11m102.6-51c-.1-1.4-.4-2-1-2-.4 0-.7.5-1 1.2l-22.5 48-23.4-48c-.4-.9-.7-1.2-1.1-1.2-.5 0-.7.5-.9 1.4l-5.5 49.8c-.3 2.9-.5 5.8-3 6.3l-2.3.2c-.4 0-.8.2-.8.4 0 .5.6.7 1.3.7l6.4-.2 7.2.2c.9 0 1.3-.2 1.3-.7 0-.2-.3-.4-.6-.4-.4 0-1.6 0-2.9-.4-1.1-.2-2-1.2-2-2.3l.1-4 3-35.3h.4c.8 2 9.4 20.3 10 21.7.4.8 7 14 9 17.7 1.4 2.8 1.8 3.5 2.3 3.5.7 0 1-.6 2.6-4l18.7-39.7h.2l3.7 39.4c.1 1.4 0 2.7-.3 2.7-.4.1-.6.3-.6.6 0 .4.4.6 2.2.7 2.8.3 11 .5 12.7.5 1 0 1.6-.2 1.6-.7 0-.3-.2-.4-.6-.4-.8 0-2.7 0-5-.7-3.2-1-3.8-5.3-4-8l-5.2-47m25.6 37.8c0 6.3 0 11.4-.3 14.2-.2 1.9-.6 3.3-1.9 3.6l-2 .2c-.3 0-.5.2-.5.4 0 .4.4.6 1 .6l3.9-.2h2.6c1.9 0 6.3.4 16.2.4 2.5 0 3 0 3.5-1.7.3-1.4.9-5.9.9-6.4 0-.4 0-1-.4-1s-.5.3-.6 1c-.5 2.7-1.3 4-3 4.7s-4.6.7-6.3.7c-6.4 0-7.4-.8-7.5-5.3v-17c0-.2 0-.4.4-.4 1.1 0 7.6.1 9.4.3 2.5.3 3.1 1.4 3.4 2.3.2.8.2 1.5.2 2.1 0 .4.2.6.5.6.4 0 .4-.7.4-1.2l.3-4.2.5-3.7c0-.4-.1-.5-.3-.5-.3 0-.5.3-1 .9-.6.6-1.5.8-3 .9l-10.5.1c-.3 0-.3-.2-.3-.6v-18.1c0-.5 0-.7.3-.7l9 .2c3.5.4 4.2 1.2 4.7 2.3.3.7.3 1.9.3 2.3 0 .5.2.9.6.9.2 0 .4-.4.4-.7.2-.8.3-3.7.4-4.4l.5-3c0-.4 0-.6-.3-.6l-.9.3c-.5.1-1.6.3-2.8.3h-15l-7.4-.1c-.7 0-1 .1-1 .5 0 .3.2.4.5.4.6 0 1.7 0 2.2.2 2.2.5 2.7 1.5 2.8 3.7.2 2.1.2 4 .2 14.2v11.5m44.2-11.5.1-14.2c.1-2.3.6-3.4 2.5-3.7l2.2-.2c.3 0 .5-.1.5-.4 0-.4-.3-.5-1-.5l-7 .2-7.5-.2c-.7 0-1 .1-1 .5 0 .3.2.4.5.4.6 0 1.7 0 2.2.2 2.2.5 2.7 1.5 2.8 3.7.2 2.1.2 4 .2 14.2v11.5c0 6.3 0 11.4-.4 14.2-.2 1.9-.5 3.3-1.9 3.6l-2 .2c-.3 0-.4.2-.4.4 0 .4.3.6 1 .6l3.7-.2h2.7c3.8 0 8.1.4 17.6.4 3.4 0 3.6-.3 4-1.8.6-1.9 1-5.8 1-6.5 0-.8 0-1-.3-1-.4 0-.6.3-.6.8a9.1 9.1 0 0 1 -1.7 4c-1.6 1.8-4.5 2-8 2-5 0-6.7-.5-7.8-1.6-1.2-1.2-1.4-5.4-1.4-15zm38.3 0 .1-14.2c.2-2.3.7-3.4 2.4-3.7l1.7-.2c.2 0 .5-.1.5-.4 0-.4-.3-.5-1-.5l-6.5.2-6.6-.2c-.7 0-1 .1-1 .5 0 .3.2.4.5.4.5 0 1.3 0 2 .3 1.5.3 2.1 1.4 2.3 3.6v25.7c0 6.3 0 11.4-.2 14.2-.3 1.9-.6 3.3-2 3.6l-1.9.2c-.4 0-.5.2-.5.4 0 .4.3.6 1 .6l6.4-.2 8 .2c.8 0 1.1-.2 1.1-.6 0-.2 0-.4-.5-.4-.6 0-2 0-3-.2-1.9-.3-2.3-1.7-2.5-3.6-.3-2.8-.3-8-.3-14.2zm23.8-9.8a1354.3 1354.3 0 0 0 34.2 36.5c3.4 3.5 4.2 4.2 4.7 4.2s.6-.3.6-4.6l.2-38.4c0-3.9.2-5.3 2.4-5.8l1.5-.2c.5 0 .8-.2.8-.5s-.5-.4-1.2-.4l-5.6.2-6.8-.2c-.8 0-1.3 0-1.3.4 0 .3 0 .5.5.5.6 0 2 0 3.2.3 2 .6 2.5 2 2.6 6.3l.7 33.2-15.7-17-20.8-22.5c-.7-.7-1.8-2.1-2.3-2.1s-.7.7-.7 3.2v37.5c0 6-.4 7.9-2 8.4-1 .3-2.2.3-2.7.3-.4 0-.6.2-.6.4 0 .5.4.6 1 .6l6.4-.2c.6 0 3.2.2 7 .2.7 0 1-.2 1-.6 0-.2-.1-.4-.4-.4-.6 0-2 0-3.3-.3-1.8-.6-2.4-2.3-2.6-7.6zm63.8 8.7v-14c0-.6.2-1 .8-1.2.5-.3 3-.5 4.3-.5 7.8 0 15.2 1 21.4 7.4 2.6 2.8 6.2 8.2 6.2 16.5 0 6-1.8 12.3-5.2 15.6a22 22 0 0 1 -15.6 6.1c-7.7 0-10.2-1.3-11-2.6-.6-.7-.7-3.3-.8-5l-.1-14.2zm-5.5 12.6c0 6.3 0 11.4-.4 14.2-.2 1.9-.6 3.3-1.9 3.6l-2 .2c-.3 0-.4.2-.4.4 0 .4.3.6 1 .6l6.4-.2c.7 0 9 .8 14.5.8a26 26 0 0 0 19.9-7.6c3.6-3.8 7-10.2 7-18.4 0-7.8-3-13.2-6.3-16.6-7.8-8.1-19.8-7.5-26.3-7.5l-8.8.2-7.4-.2c-.7 0-1 .1-1 .5 0 .3.2.4.5.4.6 0 1.7 0 2.2.2 2.2.5 2.7 1.5 2.8 3.7.2 2.1.2 4 .2 14.2zm61.1-2.7c-.2 0-.4-.1-.2-.5l5.7-17.6c.4-1 .7-1 1 0l6.2 17.6c0 .3 0 .5-.2.5zm-9.2 14.5c-1.2 3.2-2.5 5.7-5.5 6.1l-1.9.1c-.3 0-.6.2-.6.4 0 .4.4.6 1.3.6l7.4-.2 5 .2c.6 0 1-.2 1-.6 0-.2-.2-.4-.6-.4h-.7c-1 0-2.5-.5-2.5-1.8 0-1.2.4-2.8 1-4.4l3.9-11.6c.1-.3.3-.5.6-.5h14.1c.3 0 .5 0 .6.4l6 16c.5 1.1 0 1.7-.3 1.8-.3 0-.5.2-.5.5 0 .4.8.4 2 .4 4.5.2 9.3.2 10.3.2.7 0 1.3-.2 1.3-.6 0-.3-.3-.4-.7-.4-.6 0-1.6 0-2.6-.3-1.4-.4-3.3-1.5-5.6-7.3-4-10-14.3-37-15.3-39.5-.7-2-1-2.3-1.4-2.3s-.7.4-1.4 2.5z" style="fill: inherit;" fill-rule="evenodd"/></svg>