<svg width="700" height="135" viewBox="0 0 700 135" fill="none" xmlns="http://www.w3.org/2000/svg" style="width: inherit; height: auto;" class="scale-100 w-16 h-16">
<path d="M25.813 53.1945C25.813 21.9036 35.1996 4.69363 49.2795 4.69363C63.3593 4.69363 72.7459 21.9036 72.7459 53.1945C72.7459 84.4854 63.3593 101.695 49.2795 101.695C35.1996 101.695 25.813 84.4854 25.813 53.1945ZM0 53.1945C0 82.6079 17.9909 106.389 49.2795 106.389C80.568 106.389 98.5589 82.6079 98.5589 53.1945C98.5589 23.7811 80.568 0 49.2795 0C17.9909 0 0 23.7811 0 53.1945Z" fill="#25201E"/>
<path d="M90.287 104.042H129.867L113.91 93.0904L122.045 71.969H156.462L165.849 96.2195L154.116 104.042H204.49L190.41 94.6549L154.741 2.34681H120.011L136.281 19.5568L108.278 92.3081L90.287 104.042ZM139.254 27.3795L154.272 66.4931H124.079L139.254 27.3795Z" fill="#25201E"/>
<path d="M301.438 101.695L288.14 93.0904V55.5413H292.833L324.748 101.695H356.975L346.806 93.0904L318.333 53.351C332.413 49.909 341.331 41.9298 341.331 28.1618C341.331 8.60499 323.34 0 297.527 0H252.94L264.674 8.60499V93.0904L252.94 101.695H301.438ZM288.14 5.47591H292.833C306.913 5.47591 316.3 13.2986 316.3 28.1618C316.3 43.025 306.913 50.0654 292.833 50.0654H288.14V5.47591Z" fill="#25201E"/>
<path d="M421.412 76.3498C421.412 76.3498 415.154 90.7436 399.667 90.7436C388.716 90.7436 376.044 82.9208 376.044 60.235V59.4527H421.412C421.412 43.025 415.937 28.9441 391.375 28.9441C372.758 28.9441 356.488 44.5895 356.488 66.4931C356.488 87.6145 369.63 104.042 391.375 104.042C419.065 104.042 421.412 76.3498 421.412 76.3498ZM393.252 32.8554C400.292 32.8554 403.421 38.3313 403.421 46.1541C403.421 52.4122 398.728 54.759 390.906 54.759H376.357C377.921 40.3652 385.587 32.8554 393.252 32.8554Z" fill="#25201E"/>
<path d="M435.702 41.4604V128.293L426.316 134.551H466.209L456.04 128.293V95.5936C456.196 95.9066 461.046 104.042 474.031 104.042C492.804 104.042 502.19 89.179 502.19 66.4931C502.19 43.8072 492.022 28.9441 475.595 28.9441C466.991 28.9441 461.515 33.7942 456.04 42.2427V28.9441L426.316 36.7668L435.702 41.4604ZM456.04 46.9363C460.577 40.3652 463.08 37.5491 467.773 37.5491C475.908 37.5491 481.071 47.7186 481.071 68.0577C481.071 87.6145 476.377 98.5663 467.773 98.5663C462.767 98.5663 456.353 94.1856 456.04 85.8935V46.9363Z" fill="#25201E"/>
<path d="M510.192 66.4931C510.192 89.179 524.428 104.042 544.61 104.042C563.226 104.042 579.027 89.179 579.027 66.4931C579.027 43.8072 564.791 28.9441 544.61 28.9441C525.993 28.9441 510.192 43.8072 510.192 66.4931ZM531.312 66.4931C531.312 41.6169 537.257 32.8554 544.61 32.8554C551.962 32.8554 557.907 43.1814 557.907 66.4931C557.907 89.8048 551.962 100.131 544.61 100.131C537.257 100.131 531.312 89.8048 531.312 66.4931Z" fill="#25201E"/>
<path d="M593.378 41.4604V95.4372L583.992 101.695H623.102L613.716 95.4372V50.8477C617.627 45.3718 621.538 41.4604 623.102 41.4604C625.449 41.4604 625.449 50.0654 634.21 50.0654C641.093 50.0654 644.222 44.5895 644.222 39.583C644.222 33.1683 639.529 28.9441 634.053 28.9441C628.891 28.9441 625.449 31.2909 618.878 39.1136L613.716 45.3718V28.9441L583.992 36.7668L593.378 41.4604Z" fill="#25201E"/>
<path d="M649.156 35.9845H661.671V87.6145C661.671 99.3486 668.711 104.042 677.316 104.042C691.709 104.042 700 86.8322 700 86.8322C700 86.8322 693.742 93.0904 688.267 93.0904C685.138 93.0904 682.009 91.5258 682.009 85.2677V35.9845H698.436V31.2909H682.009V10.9518L649.156 35.9845Z" fill="#25201E"/>
<path d="M204.499 82.1604C204.499 95.3947 214.505 106.37 228.706 106.37C242.908 106.37 252.914 95.3947 252.914 82.1604C252.914 68.926 242.908 57.9512 228.706 57.9512C214.505 57.9512 204.499 68.926 204.499 82.1604Z" fill="#F55F5F"/>
</svg>
