<svg xmlns="http://www.w3.org/2000/svg" fill="none" viewBox="0 0 1505 286" class="scale-100">
  <path fill="#2E2E2F" d="M109.3 220.3C48.7 220.3.4 175.6.4 112.9S49.6 3.4 110.5 3.4c60.3 0 108.9 44.4 108.9 107.1 0 62.7-49.2 109.8-110.1 109.8Zm3.3-15.6c28.5 0 53.1-31.2 53.1-88.2 0-59.1-22.8-97.5-59.1-97.5-28.5 0-52.8 31.2-52.8 88.2 0 59.1 22.8 97.5 58.8 97.5ZM340.228 160.3h12.9l-3.3-6.9h-87.3l-9.9 22.8c-8.7 19.5-4.2 28.5 10.5 30.3l5.1.6v9.9h-63.9s-9.9-6.6 0-9.3c9.9-2.7 20.7-10.2 27.3-25.2L312.928.4h11.1l81.3 184.5c6 13.2 12 19.8 25.2 22.8v9.3h-96.6v-9.9l5.1-.6c11.1-1.2 17.1-8.4 11.7-21.3l-10.5-24.9Zm-71.7-20.4h63.6l-30.9-74.1-32.7 74.1ZM595.93 124.9v59.7c0 13.8 6.6 20.7 20.1 21.6l8.1.6V217h-106.2v-10.2l8.1-.6c13.5-.9 20.1-7.8 20.1-21.6V39.4c0-13.8-6.6-20.7-20.1-21.6l-8.1-.6V7h119.1c47.7 0 74.1 24.3 74.1 55.2 0 24.9-21.3 42.9-44.4 50.4 16.2 3.9 27.3 13.8 33.3 27.3l23.7 54.6c3.6 8.4 10.2 10.8 16.8 12l3.6.6v9.9h-65.4l-29.7-78.9c-5.7-14.7-12.3-20.1-25.5-20.1h-39.3v6.9h11.7Zm0-20.4h25.2c22.8 0 40.2-14.7 40.2-40.8 0-24.6-13.8-42.6-40.5-42.6h-36.6V28h11.7v76.5ZM882.779 136.3h-107.1v6.3h12c2.1 31.8 18.9 53.1 49.5 53.1 15 0 30-6 39.3-22.8l2.4 1.2c-10.2 28.8-34.8 46.5-61.2 46.5-43.2 0-74.7-32.1-74.7-75.9 0-42 30.9-78.9 75.9-78.9 39.3 0 65.1 30 63.9 70.5Zm-65.1-55.5c-18.3 0-27.9 18.9-30 43.8h59.1c0-24.6-11.4-43.8-29.1-43.8ZM976.452 276.7v9.3h-83.7v-9.3l6.3-.6c9.6-.9 13.8-7.2 13.8-18.6v-150c0-9.6-2.1-13.2-14.1-19.2l-11.1-5.4 67.2-20.1v20.4l-10.8 13.5v9.6l7.2-9c17.4-21.6 31.8-31.8 52.798-31.8 28.5 0 57.6 23.7 57.6 68.7 0 55.2-41.1 85.5-87.298 85.5-7.2 0-13.8-.6-19.5-1.8v39.6c0 11.4 4.8 17.7 15.3 18.6l6.3.6Zm6.9-188.1c-12.9 0-22.5 9.3-28.5 19.5v90c6.3 4.5 13.8 7.8 24.3 7.8 23.398 0 40.498-24.6 40.498-62.4 0-31.8-15-54.9-36.298-54.9ZM1155.61 65.5c43.5 0 76.2 32.7 76.2 76.5 0 44.1-33.6 78.6-76.2 78.6-43.5 0-76.2-33-76.2-76.8 0-44.4 33.3-78.3 76.2-78.3Zm-2.4 14.7c-17.4 0-29.1 21-29.1 57.3 0 42.6 12.3 68.1 33.3 68.1 17.4 0 29.7-21 29.7-57.3 0-42.6-12.6-68.1-33.9-68.1ZM1261.97 107.5c0-9.6-2.1-13.2-14.1-19.2l-11.1-5.4 67.2-17.7v21.3c-1.5 2.7-8.7 15.3-9.9 18.3v14.4c12.9-34.8 33.6-52.8 54.9-52.8 18.9 0 28.5 11.1 28.5 24.9 0 12.9-9 20.7-19.5 20.7s-18.6-7.8-18.6-16.8c0-3.3 1.5-7.5 3-8.1h4.5v-5.7c-16.5-1.8-31.8 12.3-42.9 37.2v69.9c0 11.4 4.5 17.7 14.7 18.6l6.9.6v9.3h-85.2v-9.3l6.9-.6c10.2-.9 14.7-7.2 14.7-18.6v-81ZM1441.39 80.8v6.3h13.2v86.1c0 13.2 8.1 21 20.1 21 12.3 0 21.9-6.3 28.2-20.7l1.5.6c-6.6 29.7-24 45.3-51 45.3-24.3 0-40.8-13.5-40.8-39.9V80.8h-27.9c30.9-19.8 56.1-45.3 69.9-72.3v60.6h46.8v11.7h-60Z"/>
  <path fill="#E64E4E" d="M508 186c0 19.33-15.67 35-35 35s-35-15.67-35-35 15.67-35 35-35 35 15.67 35 35Z"/>
</svg>