<svg xmlns="http://www.w3.org/2000/svg" fill="none" viewBox="0 0 680 511">
  <mask id="system-1" width="680" height="511" x="0" y="0" maskUnits="userSpaceOnUse">
    <path fill="#fff" stroke="#fff" d="M.5 1h679v509H.5z"/>
  </mask>
  <g mask="url(#system-1)">
    <path fill="#fff" d="M-154.9 275.9L617 69.1l201.6 752.5-771.8 206.8z"/>
    <path stroke="#fff" stroke-width="10" d="M-149.4 279.1l763-204.5L813 818.4 49.9 1022.9zM-125.7 386.6l772.7-207M305.6 959.5L103.7 206.1M559.9 891.3L358.1 137.9M-97.3 492.9l772.8-207.1M-68.8 599.1l772.7-207M-40.3 705.4l772.7-207.1"/>
    <path fill="#07F" d="M-114.3 389l244.6-65.5L156 420l-244.5 65.6zM-142.7 283L102 217.7l25.9 96.5-244.6 65.6zM-86 495l244.6-65.5 25.9 96.6-244.6 65.5zM139.7 321l244.6-65.5 25.9 96.6-244.6 65.5zM111.3 215L356 149.5l25.9 96.6-244.6 65.5zM168 426.9l244.7-65.5 25.8 96.6L194 523.5zM196.5 532.9l244.6-65.5L467 564l-244.6 65.5zM393.7 253l244.6-65.6 25.9 96.6-244.6 65.5zM365.3 147l244.6-65.6 25.9 96.6-244.6 65.5zM422.1 359l244.6-65.6 25.9 96.6L448 455.5zM450.5 464.8L695 399.3l25.8 96.6-244.5 65.5zM478.9 570.8l244.6-65.5 25.9 96.6-244.6 65.5z"/>
    <path fill="#fff" d="M161.3 243.8l4.8 17.8c.7 2.7.8 5.1.2 7.4a12 12 0 01-3.4 5.7 14 14 0 01-6.1 3.3 14 14 0 01-7 .2 12 12 0 01-5.7-3.3 13.9 13.9 0 01-3.6-6.4l-4.8-17.9 5.2-1.4 4.8 18c.7 2.5 2 4.3 3.9 5.3a8.2 8.2 0 0010.6-2.8c1.2-1.9 1.5-4 .8-6.7l-4.8-17.9 5.1-1.3zm14.3-3.9l1.7 6a16 16 0 012.9-5.9 8.8 8.8 0 014.6-3.2 8 8 0 013.3-.2l1.5 5.7a7.8 7.8 0 00-4.2 0c-2 .5-3.5 1.6-4.4 3.4-.8 1.8-1.6 3.9-2.2 6.2l5 18.2-5 1.3-8.1-30.1 5-1.4zm20.2-19.6l11.6 43.5-4.9 1.3-11.6-43.5 4.9-1.3zM399.5 179.3c1.7-.5 3.5-.7 5.1-.5 1.7 0 3 .2 3.8.6l1.4 5.3c-1-.4-2.4-.7-4-1-1.6-.2-3.1 0-4.7.3-1.9.5-3.2 1.4-3.9 2.5-.7 1.1-.9 2.2-.6 3.2.2.7.6 1.4 1.4 2.1.7.6 1.9 1 3.4 1.1l5.5.5c2.2.1 4 .7 5.2 1.7a8.3 8.3 0 012.5 9.2c-.6 1.7-1.6 3.1-3 4.4a13.4 13.4 0 01-5.4 2.8 23.1 23.1 0 01-7.5.4 16 16 0 01-2.6-.6l-1.4-5.3a21 21 0 006.4 1.1c1.3 0 2.4 0 3.4-.3a7.4 7.4 0 004.1-2.5 4 4 0 00.9-3.6c-.3-1-.9-1.6-1.8-2-.9-.4-2-.6-3.6-.8l-5-.4c-2.5-.3-4.3-1-5.5-2a9.7 9.7 0 01-2.4-4.4c-.6-2.6-.3-5 1.2-7.2s3.9-3.7 7-4.6zm23-14.8l2.3 8.7 8.8-2.4 1.3 4.6-8.8 2.4 4.7 17.7c.3 1.2 1 2.1 1.8 2.7.8.6 1.9.6 3.2.3 1.2-.3 2.2-.7 3-1.2l1.7-1.6 1.1 4c-.6.9-1.3 1.6-2.2 2.2-.7.7-1.9 1.2-3.4 1.6-2.6.7-4.8.4-6.5-.7a9.8 9.8 0 01-3.6-5.7l-4.8-18-5.8 1.6-.4-1.5a12 12 0 003.8-5.6 35 35 0 001.5-8.5l2.3-.6zm32.4 0c1.7-.5 3.6-.6 5.6-.2 2 .3 3.9 1 5.5 2.1l-1-4 4.9-1.3 8 30.2-4.9 1.3-1.3-5.1c-.6 1.8-1.7 3.6-3.2 5.3a11 11 0 01-5.6 3.5 13.9 13.9 0 01-14.2-4.2c-1.9-2-3.2-4.5-4-7.6-1-3.3-1-6.4-.5-9.1a14.7 14.7 0 0110.7-11zm2.2 4.5a9.7 9.7 0 00-5.1 3.2c-1.3 1.5-2 3.2-2.5 5.1a13 13 0 003 11 9.5 9.5 0 0010 3 9 9 0 004.5-2.8c1.1-1.4 2-3 2.3-5 .4-1.9.3-4-.3-6l-1.6-5.8a16.2 16.2 0 00-5-2.6 9.3 9.3 0 00-5.3 0zm29-21.6l2.4 8.7 8.8-2.4 1.3 4.7-8.9 2.3 4.8 17.7c.3 1.3.9 2.2 1.7 2.7.9.6 2 .7 3.3.3 1.2-.3 2.2-.7 2.9-1.2.7-.5 1.3-1 1.8-1.6l1.1 4a9.2 9.2 0 01-5.7 3.8c-2.5.7-4.7.5-6.4-.7a9.8 9.8 0 01-3.6-5.7l-4.8-18-5.8 1.6-.4-1.4a12 12 0 003.8-5.7 35 35 0 001.5-8.5l2.3-.6zm44.9-2.7l4.8 17.9c.7 2.6.8 5 .1 7.3a12 12 0 01-3.3 5.7 14 14 0 01-6.1 3.3 14 14 0 01-7 .2 12 12 0 01-5.8-3.2 13.9 13.9 0 01-3.5-6.5l-4.8-17.8 5.1-1.4 4.8 17.9c.7 2.6 2 4.4 4 5.4a8.2 8.2 0 0010.6-2.9c1.2-1.8 1.5-4 .8-6.6l-4.8-18 5.1-1.3zm18.2-5.5c1.8-.5 3.5-.7 5.2-.6 1.6.1 2.9.3 3.7.7l1.4 5.3c-1-.4-2.3-.8-4-1a12 12 0 00-4.7.3c-1.8.5-3.2 1.4-3.9 2.5-.7 1.1-.9 2.2-.6 3.1.2.8.6 1.5 1.4 2.2.8.6 1.9 1 3.4 1l5.5.5c2.2.2 4 .8 5.2 1.8 1.4 1 2.2 2.4 2.7 4.2.5 1.6.4 3.3-.2 5-.5 1.6-1.6 3.1-3 4.4a13.4 13.4 0 01-5.4 2.8c-1.2.3-2.5.4-3.8.5-1.4 0-2.6 0-3.7-.2a16 16 0 01-2.5-.5l-1.5-5.3a21 21 0 006.4 1.1c1.3 0 2.4-.1 3.4-.4a7.4 7.4 0 004.1-2.4 4 4 0 00.9-3.6c-.3-1-.9-1.7-1.8-2-.8-.4-2-.6-3.6-.8l-5-.4c-2.5-.3-4.3-1-5.4-2a9.7 9.7 0 01-2.4-4.4c-.7-2.6-.3-5 1.1-7.2 1.5-2.2 3.9-3.8 7-4.6zM-89.9 403.2l206-55.2 2.5 9.7-205.9 55.2zM192.5 440.8l206-55.2 2.5 9.7-206 55.2zM221 547l155.4-41.5 2.6 9.6-155.4 41.7zM-61.5 509.1l96-25.7 2.6 9.6-96 25.8zM418.2 267l96-25.7 2.6 9.6-96 25.8zM164.2 335.1l137.7-37 2.6 9.7-137.7 37zM475 479l137.7-36.9 2.6 9.7-137.7 36.9zM446.9 372.6L602.3 331l2.6 9.6-155.4 41.7zM-82.1 432.1l96-25.7 2.6 9.6-96 25.8zM200.3 469.8l96-25.7 2.6 9.6-96 25.8z"/>
    <path stroke="#fff" d="M-154.9 275.9L617 69.1l201.6 752.5-771.8 206.8z"/>
    <path fill="#fff" d="M55.1 315.9L827 109.1l201.6 752.5-771.8 206.8z"/>
    <path stroke="#fff" stroke-width="10" d="M60.6 319.1l763-204.5L1023 858.4l-763.1 204.5zM84.3 426.6l772.7-207M515.6 999.5L313.7 246.1M769.9 931.3L568 177.9M112.7 532.9l772.8-207.1M141.2 639.1l772.7-207"/>
    <path fill="#07F" d="M95.6 429l244.6-65.5L366 460l-244.5 65.5zM67.3 323L312 257.7l25.9 96.5-244.6 65.6zM124 535l244.6-65.5 25.9 96.6-244.6 65.5zM349.7 361l244.6-65.5 25.9 96.6-244.6 65.5zM321.3 255L566 189.5l25.9 96.6-244.6 65.5zM378 466.9l244.7-65.5 25.8 96.6L404 563.5zM406.5 572.9l244.6-65.5L677 604l-244.6 65.5zM603.7 293l244.6-65.6 25.9 96.6-244.6 65.5zM575.3 187l244.6-65.6 25.9 96.6-244.6 65.5zM632.1 399l244.6-65.6 25.9 96.6L658 495.5zM660.5 504.8L905 439.3l25.8 96.6-244.5 65.5z"/>
    <path fill="#fff" d="M126 335.3l11.6 43.4-5 1.4-1.3-5.2c-.6 2-1.7 3.7-3.2 5.4a11 11 0 01-5.6 3.4 13.9 13.9 0 01-14.2-4.1c-1.8-2-3.2-4.5-4-7.6-.9-3.3-1-6.4-.4-9.1.6-2.8 1.9-5.1 3.7-7 1.9-2 4.2-3.2 7-4 1.7-.4 3.5-.5 5.5-.1 2 .3 3.9 1 5.6 2.1l-4.7-17.3 5-1.3zm-9.2 21.3a9.7 9.7 0 00-5.2 3.1 11 11 0 00-2.4 5.1 13 13 0 002.9 10.9c1.2 1.4 2.7 2.4 4.4 3 1.8.5 3.6.5 5.5 0a9 9 0 004.6-2.8c1.2-1.3 2-3 2.4-4.9.3-2 .2-4-.4-6L127 359c-1.7-1.2-3.3-2-5-2.5a9.7 9.7 0 00-5.2 0zm36.5-15a15.9 15.9 0 0115.8 4.2c2 2 3.4 4.5 4.2 7.4a16.3 16.3 0 11-31.5 8.4 16.4 16.4 0 014-15.7c1.9-2 4.4-3.5 7.5-4.4zm1.3 4.8a10.7 10.7 0 00-7.9 8.1c-.4 1.9-.3 3.8.2 5.8a11.3 11.3 0 007.6 8.1c1.8.6 3.8.6 6 0a10.5 10.5 0 007.8-8 12 12 0 00-3-11 10.3 10.3 0 00-4.7-3c-1.8-.6-3.9-.6-6 0zm23.7-26.4c1.2-.4 2.2-.2 3.2.4a4 4 0 012 2.6c.3 1 .1 2-.4 3.1-.6 1-1.4 1.8-2.6 2a4.3 4.3 0 01-5.2-3c-.3-1-.2-2 .4-3a4 4 0 012.6-2.1zm7 13.6l8 30.2-4.9 1.3-6.8-25.5-4.8 1.3-1.3-4.7 9.8-2.6zM371.3 283.8l4.8 17.8c.7 2.7.8 5.1.2 7.4a12 12 0 01-3.4 5.7 14 14 0 01-6.1 3.3 14 14 0 01-7 .2 12 12 0 01-5.7-3.3 13.9 13.9 0 01-3.6-6.4l-4.8-17.9 5.2-1.4 4.8 18c.7 2.5 2 4.3 3.9 5.3a8.2 8.2 0 0010.6-2.8c1.2-1.9 1.5-4 .8-6.7l-4.8-17.9 5.1-1.3zm14.3-3.9l1.7 6a16 16 0 012.9-5.9 8.8 8.8 0 014.6-3.2 8 8 0 013.3-.2l1.5 5.7a7.8 7.8 0 00-4.2 0c-2 .5-3.5 1.6-4.4 3.4-.8 1.8-1.6 3.9-2.2 6.2l5 18.2-5 1.3-8.1-30.1 5-1.4zm20.2-19.6l11.6 43.5-4.9 1.3-11.6-43.5 4.9-1.3zM609.5 219.3c1.7-.5 3.5-.7 5.1-.5 1.7 0 3 .2 3.8.6l1.4 5.3c-1-.4-2.3-.7-4-1-1.6-.2-3.1 0-4.7.3-1.9.5-3.2 1.4-3.9 2.5-.7 1.1-1 2.2-.6 3.2.2.7.6 1.4 1.4 2.1.7.6 1.9 1 3.4 1.1l5.5.5c2.2.1 4 .7 5.2 1.7a8.3 8.3 0 012.5 9.2c-.6 1.7-1.6 3.1-3 4.4a13.4 13.4 0 01-5.4 2.8 23.1 23.1 0 01-7.5.4 16 16 0 01-2.6-.6l-1.4-5.3a21 21 0 006.4 1.1c1.3 0 2.4 0 3.4-.3a7.4 7.4 0 004.1-2.5 4 4 0 00.9-3.6c-.3-1-.9-1.6-1.8-2-.9-.4-2-.6-3.6-.8l-5-.4c-2.5-.3-4.3-1-5.5-2a9.7 9.7 0 01-2.4-4.4c-.6-2.6-.3-5 1.2-7.2s3.9-3.7 7-4.6zm23-14.8l2.3 8.7 8.8-2.4 1.3 4.6-8.8 2.4 4.7 17.7c.3 1.2 1 2.1 1.8 2.7.8.6 1.9.6 3.2.3 1.2-.3 2.2-.7 3-1.2l1.7-1.6 1.1 4c-.6.9-1.3 1.6-2.2 2.2-.7.7-1.9 1.2-3.4 1.6-2.6.7-4.8.4-6.5-.7a9.8 9.8 0 01-3.6-5.7l-4.8-18-5.8 1.6-.4-1.5a12 12 0 003.8-5.6 35 35 0 001.5-8.5l2.3-.6zm32.4 0c1.7-.5 3.6-.6 5.6-.2 2 .3 3.9 1 5.5 2.1l-1-4 4.9-1.3 8 30.2-4.9 1.3-1.3-5.1c-.6 1.8-1.7 3.6-3.2 5.3a11 11 0 01-5.6 3.5 13.9 13.9 0 01-14.2-4.2c-1.9-2-3.2-4.5-4-7.6-1-3.3-1-6.4-.5-9.1a14.7 14.7 0 0110.7-11zm2.2 4.5a9.7 9.7 0 00-5.1 3.2c-1.3 1.5-2 3.2-2.5 5.1a13 13 0 003 11 9.5 9.5 0 0010 3 9 9 0 004.5-2.8c1.1-1.4 2-3 2.3-5 .4-1.9.3-4-.3-6l-1.6-5.8a16.2 16.2 0 00-5-2.6 9.3 9.3 0 00-5.3 0zm29-21.6l2.4 8.7 8.8-2.4 1.3 4.7-8.9 2.3 4.8 17.7c.3 1.3.9 2.2 1.7 2.7.9.6 2 .7 3.3.3 1.2-.3 2.2-.7 2.9-1.2.7-.5 1.3-1 1.8-1.6l1.1 4a9.2 9.2 0 01-5.7 3.8c-2.5.7-4.7.5-6.4-.7a9.8 9.8 0 01-3.6-5.7l-4.8-18-5.8 1.6-.4-1.4a12 12 0 003.8-5.7 35 35 0 001.5-8.5l2.3-.6zm44.9-2.7l4.8 17.9c.7 2.6.8 5 .1 7.3a12 12 0 01-3.3 5.7 14 14 0 01-6.1 3.3 14 14 0 01-7 .2 12 12 0 01-5.8-3.2 13.9 13.9 0 01-3.5-6.5l-4.8-17.8 5.1-1.4 4.8 17.9c.7 2.6 2 4.4 4 5.4a8.2 8.2 0 0010.6-2.9c1.2-1.8 1.5-4 .8-6.6l-4.8-18 5.1-1.3zm18.2-5.5c1.8-.5 3.5-.7 5.2-.6 1.6.1 2.9.3 3.7.7l1.4 5.3c-1-.4-2.3-.8-4-1a12 12 0 00-4.7.3c-1.8.5-3.2 1.4-3.9 2.5-.7 1.1-.9 2.2-.6 3.1.2.8.6 1.5 1.4 2.2.8.6 1.9 1 3.4 1l5.5.5c2.2.2 4 .8 5.2 1.8 1.4 1 2.2 2.4 2.7 4.2.5 1.6.4 3.3-.2 5-.5 1.6-1.6 3.1-3 4.4a13.4 13.4 0 01-5.4 2.8c-1.2.3-2.5.4-3.8.5-1.4 0-2.6 0-3.7-.2a16 16 0 01-2.5-.5l-1.5-5.3a21 21 0 006.4 1.1c1.3 0 2.4-.1 3.4-.4a7.4 7.4 0 004.1-2.4 4 4 0 00.9-3.6c-.3-1-.9-1.7-1.8-2-.8-.4-2-.6-3.6-.8l-5-.4c-2.5-.3-4.3-1-5.4-2a9.7 9.7 0 01-2.4-4.4c-.7-2.6-.3-5 1.1-7.2 1.5-2.2 3.9-3.8 7-4.6zM120.1 443.2l206-55.2 2.5 9.7-205.9 55.2zM402.5 480.8l206-55.2 2.5 9.7-206 55.2zM628.2 307l96-25.7 2.6 9.6-96 25.8zM374.2 375.1l137.7-37 2.6 9.7-137.7 37zM656.9 412.6L812.3 371l2.6 9.6-155.4 41.7zM127.9 472.1l96-25.7 2.6 9.6-96 25.8zM410.3 509.8l96-25.7 2.6 9.6-96 25.8z"/>
    <path stroke="#fff" d="M55.1 315.9L827 109.1l201.6 752.5-771.8 206.8z"/>
  </g>
</svg>
