<svg xmlns="http://www.w3.org/2000/svg" fill="none" viewBox="0 0 680 511">
  <mask id="system-1" width="680" height="511" x="0" y="0" maskUnits="userSpaceOnUse">
    <path fill="#fff" d="M0 .5h680v510H0z"/>
  </mask>
  <g mask="url(#system-2)">
    <path stroke="#fff" stroke-width="10" d="M175 220.5h360v100H175z"/>
    <path fill="#F55F5F" stroke="#fff" stroke-width="10" d="M145 190.5h360v100H145z"/>
    <g filter="url(#filter0_d)">
      <path fill="#F55F5F" d="M592.3 348.8l-124.6-78.3 5.4 147.1 31.5-39 42.8 74.1 38.2-22-42.8-74.2 49.5-7.7z"/>
      <path stroke="#fff" stroke-width="10" d="M477.6 404L473 279.9l105.4 66.1-36.4 5.7-7.2 1.1 3.6 6.3 40.3 69.8-29.5 17-40.3-69.7-3.6-6.3-4.6 5.6-23.1 28.7z"/>
    </g>
    <path fill="#fff" d="M271.6 225v19.1c0 2.7-.6 5-1.8 7-1.1 2-2.6 3.5-4.6 4.5-1.9 1-4.1 1.5-6.6 1.5a14 14 0 01-6.6-1.5c-2-1-3.5-2.5-4.6-4.5a14 14 0 01-1.7-7v-19h4.2V244c0 2 .4 3.8 1.2 5.1a7.2 7.2 0 003.2 2.9 11.2 11.2 0 008.6 0 7 7 0 003.2-2.9c.8-1.3 1.2-3 1.2-5.1v-19h4.3zM284 233v3.8c.6-.6 1.2-1.3 2-1.9.8-.6 1.7-1.2 2.6-1.6 1-.5 2-.7 3.1-.7a9 9 0 014.4 1.1c1.3.7 2.3 1.7 3.1 3.2a11 11 0 011.2 5.3v14.3h-3.9v-13.9c0-2-.5-3.6-1.4-4.6-.8-1.1-2.2-1.6-4-1.6-1.3 0-2.5.4-3.8 1.4-1.2.9-2.3 2-3.2 3.2v15.5h-3.9v-23.4h3.9zM311.5 222.8v33.7h-3.8v-33.7h3.8zM330 232.6a12 12 0 0110.7 6.2c1 1.9 1.6 4 1.6 6.1a12.2 12.2 0 11-24.5 0 12.3 12.3 0 016-10.6 12 12 0 016.3-1.7zm0 3.8a8 8 0 00-7.3 4.4c-.6 1.2-.9 2.6-.9 4.1a8.5 8.5 0 003.9 7.4 8 8 0 004.4 1.2 7.9 7.9 0 007.2-4.3 9 9 0 000-8.5 7.7 7.7 0 00-2.9-3.1 7.7 7.7 0 00-4.3-1.2zM359.2 232.6c1.7 0 3.2.3 4.5.9 1.2.5 2 1 2.6 1.4v4l-3-1.8a9.9 9.9 0 00-4-.7 8 8 0 00-7.3 4.4 9.3 9.3 0 000 8.4 8 8 0 007.3 4.3 10.4 10.4 0 007-2.5v4a11.3 11.3 0 01-7 2.3 11.9 11.9 0 01-10.8-6.2c-1-1.9-1.5-4-1.5-6.2s.5-4.2 1.5-6a11.9 11.9 0 0110.7-6.2zM393.3 233l-10.9 10.3 11.5 13.2H389l-9.3-10.7-3.3 3.1v7.6h-3.8v-33.7h3.8v21.7l11.7-11.4h5.2zM403 225.1v21.1h-3.8v-21h3.9zm-1.8 25.7c.9 0 1.6.3 2.3 1a3 3 0 011 2.3c0 .9-.4 1.6-1 2.3a3 3 0 01-2.3 1c-1 0-1.7-.4-2.4-1-.6-.7-1-1.4-1-2.3 0-1 .4-1.7 1-2.3.7-.7 1.5-1 2.4-1z"/>
  </g>
</svg>
