<?xml version="1.0" standalone="no"?>
<!DOCTYPE svg PUBLIC "-//W3C//DTD SVG 20010904//EN"
 "http://www.w3.org/TR/2001/REC-SVG-20010904/DTD/svg10.dtd">
<svg version="1.0" xmlns="http://www.w3.org/2000/svg"
 width="700.000000pt" height="700.000000pt" viewBox="0 0 700.000000 700.000000"
 preserveAspectRatio="xMidYMid meet">
<metadata>
Created by potrace 1.14, written by Peter Selinger 2001-2017
</metadata>
<g transform="translate(0.000000,700.000000) scale(0.100000,-0.100000)"
fill="#000000" stroke="none">
<path d="M3215 6979 c-83 -8 -102 -11 -245 -29 -215 -28 -544 -117 -775 -210
-325 -131 -701 -356 -947 -567 -261 -225 -475 -464 -665 -743 -109 -161 -266
-464 -346 -670 -86 -220 -165 -519 -197 -745 -6 -44 -13 -93 -15 -110 -20
-142 -26 -520 -12 -698 7 -82 22 -207 32 -258 3 -13 7 -41 10 -64 21 -144 139
-564 189 -670 8 -16 24 -55 36 -85 12 -30 51 -113 87 -185 178 -355 375 -627
658 -911 282 -282 539 -470 890 -649 226 -115 553 -239 715 -270 8 -2 33 -8
55 -13 65 -17 236 -50 294 -57 30 -4 61 -8 70 -10 9 -1 50 -6 91 -10 41 -3 89
-9 105 -11 44 -7 397 -7 485 0 73 6 134 12 215 22 413 50 890 209 1265 422
163 93 406 260 480 329 l25 24 -57 -2 c-32 -2 -60 -1 -62 2 -2 2 67 51 154
109 l157 105 -23 60 c-12 33 -47 123 -77 200 -30 77 -78 202 -108 278 l-53
137 -36 1 c-47 0 -834 0 -886 0 l-41 -1 -47 -127 c-27 -71 -54 -141 -61 -158
-7 -16 -19 -48 -28 -70 -73 -189 -87 -226 -87 -229 0 -4 149 -107 394 -273 46
-32 47 -33 20 -34 -79 -1 -1074 -4 -1074 -3 0 1 64 43 143 95 314 204 367 241
367 250 0 8 175 467 199 524 5 11 23 56 39 100 36 94 138 359 367 953 l167
434 -29 31 c-54 59 -69 75 -203 217 -74 79 -152 161 -172 183 -21 22 -38 42
-38 46 0 10 949 7 958 -4 7 -9 45 -100 47 -115 0 -3 19 -52 42 -110 50 -127
48 -121 368 -950 346 -896 337 -874 345 -883 3 -4 38 46 77 110 252 418 416
884 473 1338 6 50 13 101 16 115 6 39 17 274 17 380 0 91 -12 317 -18 351 -2
9 -6 40 -10 70 -7 61 -13 102 -20 139 -3 14 -7 41 -10 60 -19 114 -78 341
-128 485 -163 476 -441 933 -782 1285 -131 136 -270 260 -417 373 -211 163
-539 350 -783 447 -310 124 -635 207 -920 235 -33 4 -73 9 -90 11 -53 9 -507
11 -590 3z m-423 -3285 c163 -24 265 -54 393 -115 138 -65 295 -180 381 -279
12 -14 34 -38 48 -55 38 -44 129 -181 161 -244 59 -118 119 -302 151 -465 19
-99 26 -417 11 -526 -4 -30 -10 -70 -12 -88 -2 -18 -16 -80 -30 -139 -139
-577 -572 -968 -1140 -1031 -121 -13 -334 -7 -455 14 -122 20 -302 84 -412
146 -316 177 -552 505 -639 887 -18 79 -19 85 -25 126 -3 22 -9 65 -14 95 -8
55 -6 409 3 445 4 20 11 55 22 125 14 85 65 248 101 324 13 28 24 53 24 58 0
13 96 170 139 228 209 277 522 454 876 496 28 4 52 8 54 10 9 8 291 -1 363
-12z"/>
<path d="M2460 3564 c-159 -48 -286 -172 -374 -367 -32 -70 -80 -206 -91 -257
-41 -196 -46 -228 -62 -390 -15 -153 -6 -729 12 -760 1 -3 6 -30 10 -60 45
-347 166 -615 344 -762 31 -26 131 -74 170 -83 70 -15 155 -13 224 6 288 80
473 441 524 1019 15 180 10 555 -12 740 -54 473 -230 808 -472 900 -70 27
-206 34 -273 14z"/>
<path d="M5112 2808 c-28 -73 -121 -313 -207 -532 -85 -220 -155 -405 -155
-411 0 -8 118 -11 415 -11 228 1 415 4 415 9 0 5 -9 29 -19 55 -11 26 -31 76
-44 112 -212 553 -341 888 -347 898 -4 9 -27 -37 -58 -120z"/>
</g>
</svg>
